<svg enable-background="new 0 0 400 400" viewBox="0 0 400 400" xmlns="http://www.w3.org/2000/svg"><g fill="#FDAA04"><path d="m121.22 237.11c-6.07 16.17-14.04 30.52-24.28 43.53-11.32 14.4-24.77 26.53-40.48 35.97-3.5 2.1-7.77 2.93-11.69 4.34-.32-.55-.64-1.1-.96-1.64 1.35-1.53 2.51-3.3 4.07-4.56 38.03-30.83 58.59-71.5 66.98-118.99 1.35-7.65 2.35-15.37 3.53-23.23-7.55 1.61-14.38 3.07-21.2 4.53-.3-.58-.6-1.16-.91-1.74 1.14-1.41 2.01-3.26 3.46-4.17 5.63-3.53 11.35-6.94 17.23-10.01 2.51-1.31 3.85-2.63 3.89-5.6.26-20.31.84-40.61.93-60.92.04-9.87-2.68-19.04-9.28-26.77-1.14-1.33-1.89-2.99-3.82-6.11 4.58.23 7.93-.3 10.76.67 8.01 2.74 15.04 7.4 19.88 14.4 1.93 2.78 2.97 6.81 2.91 10.24-.39 20.92-1.21 41.84-1.9 63.31 2.96-1.08 6.21-2.48 9.59-3.45 7.48-2.15 14.52-.82 20.64 3.89 1.44 1.11 2.88 4.07 2.36 5.4-.68 1.71-3.19 3.31-5.18 3.76-8.89 2.02-17.91 3.51-26.81 5.49-1.52.34-3.65 1.95-3.92 3.29-4.42 21.39-8.59 42.84-12.9 64.69 6.96 2.56 15.05 5.4 23.03 8.51 7.17 2.8 14.02 6.23 18.99 12.45 5.18 6.48 6.66 13.65 3.77 21.49-1.81 4.9-5.52 6.34-9.79 3.36-3.21-2.24-5.94-5.29-8.54-8.29-8.27-9.55-16.33-19.28-24.58-28.84-1.48-1.74-3.48-3.04-5.78-5z"/><path d="m137.37 359.82c2.18-1.52 4.25-3.23 6.56-4.54 55.81-31.72 98.33-77.06 133.27-130.13 7.94-12.06 12.3-25.31 11.52-40.02-.11-2.03 1.32-4.14 2.03-6.21 2.17.9 5.03 1.2 6.38 2.79 6.36 7.5 12.2 15.5 14.16 25.38.59 2.96.3 6.91-1.23 9.37-33.61 53.78-76.38 98.38-132 129.72-9.91 5.58-20.6 9.83-31.1 14.32-2.65 1.13-5.91.84-8.89 1.21-.24-.63-.47-1.26-.7-1.89z"/><path d="m248.92 224.29c-11.53-15.81-25.08-27.79-40.72-37.57.34-.67.68-1.34 1.02-2.02 2.45.29 4.91.56 7.36.86 6.24.75 12.48 1.61 18.73 2.22 4.39.43 6.92-1.92 7.56-6.17.51-3.44 1.08-6.91 1.09-10.37.07-27.64.26-55.28-.14-82.91-.16-11.1-1.18-22.33-9.11-31.37-.54-.61-1.06-1.38-1.22-2.16-.33-1.67-1.17-4.03-.42-4.9.87-1.01 3.42-1.31 4.93-.87 3.62 1.08 7.16 2.57 10.54 4.28 3.4 1.72 6.69 3.72 9.82 5.9 6.69 4.66 6.82 5.98 5.41 14.07-.82 4.7-.68 9.6-.67 14.41.04 36.12.55 72.25.01 108.37-.18 10.69-5.34 20.22-14.19 28.23z"/><path d="m289.96 126.35c3.99-.11 8.19-1.09 11.92-.17 11.74 2.9 23.7 5.53 34.82 10.12 12.42 5.12 19.34 15.3 19.49 29.32.05 4.38-1.31 7.88-5.47 9.77-4.2 1.92-7.64-.23-10.36-2.91-4.26-4.2-8.1-8.82-12.01-13.36-9.03-10.48-19.9-18.58-31.95-25.23-2.5-1.38-4.66-3.4-6.97-5.13.17-.81.35-1.61.53-2.41z"/><path d="m84.14 208.28c-.41 1.83-.64 4.02-1.4 6.01-2.29 6.03-8.19 7.38-13.22 3.22-7.51-6.21-10.49-14.82-10.37-23.87.15-11.02 1.94-22.04 3.27-33.03.66-5.41 1.74-10.78 2.97-16.09.31-1.34 1.94-2.39 2.96-3.57.89 1.27 2.29 2.43 2.59 3.83 4.3 20.06 8.45 40.15 12.62 60.24.21.98.35 1.96.58 3.26z"/><path d="m199.64 123.84c4.15 5.56 3.62 10.81 3.25 15.76-.6 8.27-1.51 16.54-2.9 24.71-1.68 9.9-6.44 18.48-13.2 25.82-4.65 5.05-9.89 3.86-12.08-2.73-2.19-6.57-1.81-13.26 1.48-19.36 2.91-5.39 6.8-10.25 9.71-15.64 3.61-6.69 6.67-13.68 9.95-20.54 1.16-2.4 2.28-4.81 3.79-8.02z"/></g></svg>